<svg xmlns="http://www.w3.org/2000/svg" xmlns:xlink="http://www.w3.org/1999/xlink" width="610" height="404.125" viewBox="0 0 610 404.125">
  <defs>
    <clipPath id="clip-path">
      <rect id="Rectángulo_7054" data-name="Rectángulo 7054" width="209.03" height="392.883" fill="none"/>
    </clipPath>
  </defs>
  <g id="Grupo_62800" data-name="Grupo 62800" transform="translate(-42.024 -6559.291)">
    <g id="Grupo_62789" data-name="Grupo 62789" transform="translate(42.024 6559.291)">
      <g id="Grupo_62732" data-name="Grupo 62732" transform="translate(0.2)">
        <rect id="Rectángulo_7034" data-name="Rectángulo 7034" width="609.8" height="375.912" fill="#beffff"/>
      </g>
      <g id="Grupo_62733" data-name="Grupo 62733" transform="translate(0.982 33.735)">
        <path id="Trazado_112167" data-name="Trazado 112167" d="M240.435,6637.6c4.65,0,8.419-2.994,8.419-6.687s-3.769-6.687-8.419-6.687a10.213,10.213,0,0,0-3.525.621c-2.122-2.4-5.922-4.006-10.274-4.006a16.787,16.787,0,0,0-4.075.5c-2.524-3.98-8.111-6.749-14.6-6.749-.138,0-.275.006-.412.008-2.807-7.277-11.335-12.57-21.422-12.57-8.381,0-15.682,3.656-19.525,9.066a17.091,17.091,0,0,0-2.878-.246c-7.026,0-12.931,4.25-14.618,10.005-.162,0-.32-.016-.484-.016-6.937,0-12.562,3.751-12.562,8.379s5.625,8.38,12.562,8.38Z" transform="translate(-46.397 -6594.567)" fill="#1cbfbf" opacity="0.4"/>
        <path id="Trazado_112168" data-name="Trazado 112168" d="M322.188,6725.237c4.65,0,8.419-2.994,8.419-6.687s-3.769-6.687-8.419-6.687a10.229,10.229,0,0,0-3.525.62c-2.122-2.4-5.922-4.005-10.274-4.005a16.811,16.811,0,0,0-4.075.5c-2.524-3.979-8.111-6.748-14.6-6.748-.138,0-.275,0-.412.007-2.807-7.277-11.335-12.57-21.422-12.57-8.381,0-15.682,3.655-19.525,9.066a17.083,17.083,0,0,0-2.878-.246c-7.026,0-12.931,4.25-14.618,10.006-.162,0-.32-.017-.484-.017-6.937,0-12.562,3.752-12.562,8.379s5.625,8.379,12.562,8.379Z" transform="translate(-49.345 -6597.728)" fill="#1cbfbf" opacity="0.4"/>
        <path id="Trazado_112169" data-name="Trazado 112169" d="M501.063,6633.363a7.444,7.444,0,1,0-1.591-14.714c-2.138-4.138-7.676-7.1-14.214-7.169-3.373-3.671-9.036-6.087-15.465-6.125a21.9,21.9,0,0,0-38.127.1c-.669-.062-1.347-.1-2.036-.1-9.687,0-17.538,6.271-17.538,14.007s7.851,14.006,17.538,14.006Z" transform="translate(-56.351 -6594.288)" fill="#1cbfbf" opacity="0.4"/>
        <path id="Trazado_112170" data-name="Trazado 112170" d="M629.645,6789.6a6.161,6.161,0,1,0,0-12.322,6.226,6.226,0,0,0-1.317.144c-1.769-3.423-6.352-5.876-11.764-5.933-2.792-3.037-7.479-5.038-12.8-5.07a18.131,18.131,0,0,0-31.557.08c-.553-.051-1.114-.084-1.685-.084-8.017,0-14.516,5.191-14.516,11.593s6.5,11.592,14.516,11.592Z" transform="translate(-61.54 -6600.165)" fill="#1cbfbf" opacity="0.4"/>
        <path id="Trazado_112171" data-name="Trazado 112171" d="M102.392,6735.973a6.158,6.158,0,0,1-6.161,6.16H43.043v-28.306a18.213,18.213,0,0,1,11.549-4.034,17.651,17.651,0,0,1,15.756,9.156c5.322.039,10.013,2.032,12.8,5.074,5.417.057,10,2.508,11.769,5.932a5.912,5.912,0,0,1,1.317-.143A6.157,6.157,0,0,1,102.392,6735.973Z" transform="translate(-43.043 -6598.453)" fill="#1cbfbf" opacity="0.4"/>
      </g>
      <rect id="Rectángulo_7035" data-name="Rectángulo 7035" width="609.8" height="133.883" transform="translate(0.2 270.242)" fill="#1cbfbf"/>
      <g id="Grupo_62762" data-name="Grupo 62762" transform="translate(400.97 11.242)">
        <g id="Grupo_62761" data-name="Grupo 62761" clip-path="url(#clip-path)">
          <g id="Grupo_62760" data-name="Grupo 62760" transform="translate(16.676 21.507)">
            <path id="Trazado_112172" data-name="Trazado 112172" d="M746.04,6638.6H521.727l-46.432,61.813H792.472Z" transform="translate(-475.295 -6594.9)" fill="#5d7ac4"/>
            <path id="Trazado_112173" data-name="Trazado 112173" d="M634.751,6719.571h-135.4v85.789H770.153v-85.789Z" transform="translate(-476.162 -6597.82)" fill="#fdfdfd"/>
            <rect id="Rectángulo_7036" data-name="Rectángulo 7036" width="270.805" height="7.52" transform="translate(23.186 200.02)" fill="#c6cdd0"/>
            <path id="Trazado_112174" data-name="Trazado 112174" d="M610.478,6810.378v-55.565a28.281,28.281,0,0,1,56.561,0v55.565Z" transform="translate(-480.169 -6598.071)" fill="#284388"/>
            <path id="Rectángulo_7037" data-name="Rectángulo 7037" d="M23.512,0h0A23.512,23.512,0,0,1,47.024,23.512v50.8a0,0,0,0,1,0,0H0a0,0,0,0,1,0,0v-50.8A23.512,23.512,0,0,1,23.512,0Z" transform="translate(135.077 133.23)" fill="#5d7ac4"/>
            <path id="Trazado_112175" data-name="Trazado 112175" d="M634.369,6702.729h-145.6v7.639H779.973v-7.639Z" transform="translate(-475.78 -6597.212)" fill="#555"/>
            <path id="Trazado_112176" data-name="Trazado 112176" d="M634.177,6710.653H483.443l3.815,8.6H781.1l3.815-8.6Z" transform="translate(-475.588 -6597.498)" fill="#c6cdd0"/>
            <path id="Trazado_112177" data-name="Trazado 112177" d="M634,6808.568H478.57v30.444H789.433v-30.444Z" transform="translate(-475.413 -6601.029)" fill="#e2e2e2"/>
            <rect id="Rectángulo_7038" data-name="Rectángulo 7038" width="310.864" height="11.417" transform="translate(3.157 226.567)" fill="#c6cdd0"/>
            <path id="Trazado_112178" data-name="Trazado 112178" d="M717.226,6662.463v36.5H556.393v-36.5l33.637-26.875,10.186-8.135,36.594-29.24,36.584,29.231,10.186,8.145Z" transform="translate(-478.219 -6593.443)" fill="#fdfdfd"/>
            <rect id="Rectángulo_7039" data-name="Rectángulo 7039" width="39.26" height="18.473" transform="translate(138.959 87.044)" opacity="0.05"/>
            <path id="Trazado_112179" data-name="Trazado 112179" d="M717.226,6662.463v10.977L636.81,6609.2l-80.416,64.241v-10.977l80.416-64.251Z" transform="translate(-478.219 -6593.443)" fill="#e2e2e2"/>
            <path id="Trazado_112180" data-name="Trazado 112180" d="M638.471,6832.255H602.526v7.611h71.891v-7.611Z" transform="translate(-479.882 -6601.883)" fill="#555"/>
            <path id="Trazado_112181" data-name="Trazado 112181" d="M671.012,6824.36H605.931l-3.4,7.61h71.891Z" transform="translate(-479.882 -6601.598)" fill="#7d7d7d"/>
            <path id="Trazado_112182" data-name="Trazado 112182" d="M638.593,6816.464h-32.7v7.611h65.4v-7.611Z" transform="translate(-480.004 -6601.313)" fill="#555"/>
            <path id="Trazado_112183" data-name="Trazado 112183" d="M667.889,6808.568H609.3l-3.4,7.611h65.4Z" transform="translate(-480.004 -6601.029)" fill="#7d7d7d"/>
            <path id="Trazado_112184" data-name="Trazado 112184" d="M695.578,6973.361H579c-39.183-44.4,61.525-88.807,22.342-133.21h71.891C727.314,6884.555,641.5,6928.958,695.578,6973.361Z" transform="translate(-478.701 -6602.168)" fill="#138080"/>
            <g id="Grupo_62734" data-name="Grupo 62734" transform="translate(65.365)">
              <path id="Trazado_112185" data-name="Trazado 112185" d="M723.6,6673.859l-87.272-69.722-87.272,69.722-5.953-7.451,90.249-72.1a4.769,4.769,0,0,1,5.953,0l90.249,72.1Z" transform="translate(-543.105 -6593.265)" fill="#284388"/>
            </g>
            <g id="Grupo_62737" data-name="Grupo 62737" transform="translate(221 132.549)">
              <rect id="Rectángulo_7040" data-name="Rectángulo 7040" width="50.833" height="6.407" transform="translate(50.87 52.566) rotate(-180)" fill="#5d7ac4"/>
              <rect id="Rectángulo_7041" data-name="Rectángulo 7041" width="48.982" height="45.196" transform="translate(0.965 0.96)" fill="#66d6f2"/>
              <path id="Trazado_112186" data-name="Trazado 112186" d="M752.9,6731.769l-45.206,45.2h-2.127v-20.323l24.863-24.873Z" transform="translate(-704.598 -6730.809)" fill="#fff" opacity="0.2"/>
              <path id="Trazado_112187" data-name="Trazado 112187" d="M754.96,6739.357v11.683l-26.2,26.2H717.069Z" transform="translate(-705.013 -6731.083)" fill="#fff" opacity="0.2"/>
              <g id="Grupo_62736" data-name="Grupo 62736">
                <g id="Grupo_62735" data-name="Grupo 62735">
                  <path id="Trazado_112188" data-name="Trazado 112188" d="M754.506,6777.9h-48.98a.963.963,0,0,1-.964-.964v-45.195a.964.964,0,0,1,.964-.964h48.98a.964.964,0,0,1,.964.964v45.195A.964.964,0,0,1,754.506,6777.9Zm-48.016-1.928h47.052V6732.7H706.49Z" transform="translate(-704.562 -6730.773)" fill="#555"/>
                  <path id="Trazado_112189" data-name="Trazado 112189" d="M730.931,6777.9a.964.964,0,0,1-.964-.964v-45.195a.964.964,0,0,1,1.928,0v45.195A.963.963,0,0,1,730.931,6777.9Z" transform="translate(-705.478 -6730.773)" fill="#555"/>
                  <path id="Trazado_112190" data-name="Trazado 112190" d="M754.506,6756.144h-48.98a.964.964,0,1,1,0-1.928h48.98a.964.964,0,1,1,0,1.928Z" transform="translate(-704.562 -6731.618)" fill="#555"/>
                </g>
              </g>
            </g>
            <g id="Grupo_62745" data-name="Grupo 62745" transform="translate(143.294 39.729)">
              <g id="Grupo_62744" data-name="Grupo 62744">
                <path id="Trazado_112191" data-name="Trazado 112191" d="M653.606,6649.806v24.6H624.948v-24.6a14.329,14.329,0,0,1,28.658,0Z" transform="translate(-623.985 -6634.516)" fill="#66d6f2"/>
                <g id="Grupo_62740" data-name="Grupo 62740" transform="translate(0.963 2.196)" opacity="0.2">
                  <g id="Grupo_62739" data-name="Grupo 62739">
                    <g id="Grupo_62738" data-name="Grupo 62738">
                      <path id="Trazado_112192" data-name="Trazado 112192" d="M651.861,6642.986l-26.913,26.9V6656.9l20.151-20.143A14.384,14.384,0,0,1,651.861,6642.986Z" transform="translate(-624.948 -6636.758)" fill="#fff"/>
                    </g>
                  </g>
                </g>
                <g id="Grupo_62743" data-name="Grupo 62743" transform="translate(2.717 13.145)" opacity="0.2">
                  <g id="Grupo_62742" data-name="Grupo 62742">
                    <g id="Grupo_62741" data-name="Grupo 62741">
                      <path id="Trazado_112193" data-name="Trazado 112193" d="M653.672,6650.262v4.188l-20.4,20.409h-6.5l26.742-26.742A14.365,14.365,0,0,1,653.672,6650.262Z" transform="translate(-626.768 -6648.116)" fill="#fff"/>
                    </g>
                  </g>
                </g>
                <path id="Trazado_112194" data-name="Trazado 112194" d="M639.78,6675.327a.963.963,0,0,1-.964-.964v-38.919a.964.964,0,0,1,1.928,0v38.919A.963.963,0,0,1,639.78,6675.327Z" transform="translate(-624.485 -6634.48)" fill="#555"/>
                <path id="Trazado_112195" data-name="Trazado 112195" d="M653.575,6658.6H624.913a.964.964,0,1,1,0-1.928h28.662a.964.964,0,1,1,0,1.928Z" transform="translate(-623.949 -6635.28)" fill="#555"/>
              </g>
              <path id="Trazado_112196" data-name="Trazado 112196" d="M653.575,6675.327H624.913a.963.963,0,0,1-.964-.964v-24.588a15.295,15.295,0,1,1,30.59,0v24.588A.963.963,0,0,1,653.575,6675.327Zm-27.7-1.928h26.734v-23.624a13.367,13.367,0,1,0-26.734,0Z" transform="translate(-623.949 -6634.48)" fill="#555"/>
            </g>
            <rect id="Rectángulo_7042" data-name="Rectángulo 7042" width="39.26" height="8.386" transform="translate(138.959 78.658)" fill="#5d7ac4"/>
            <rect id="Rectángulo_7043" data-name="Rectángulo 7043" width="39.26" height="4.193" transform="translate(138.959 78.658)" fill="#284388"/>
            <circle id="Elipse_4211" data-name="Elipse 4211" cx="4.656" cy="4.656" r="4.656" transform="translate(168.428 171.571)" fill="#869bd3"/>
            <rect id="Rectángulo_7044" data-name="Rectángulo 7044" width="22.984" height="20.114" transform="translate(70.583 23.594)" fill="#fdfdfd"/>
            <path id="Trazado_112197" data-name="Trazado 112197" d="M571.5,6617.742v6.448l-22.984-6.448Z" transform="translate(-477.935 -6594.148)" fill="#e2e2e2"/>
            <rect id="Rectángulo_7045" data-name="Rectángulo 7045" width="32.311" height="7.352" rx="3.676" transform="translate(65.919 16.246)" fill="#284388"/>
            <g id="Grupo_62746" data-name="Grupo 62746" transform="translate(103.905 121.75)">
              <rect id="Rectángulo_7046" data-name="Rectángulo 7046" width="7.811" height="85.786" fill="#284388"/>
              <rect id="Rectángulo_7047" data-name="Rectángulo 7047" width="7.811" height="6.371" fill="#284388" opacity="0.1"/>
            </g>
            <g id="Grupo_62747" data-name="Grupo 62747" transform="translate(205.465 121.75)">
              <rect id="Rectángulo_7048" data-name="Rectángulo 7048" width="7.811" height="85.786" fill="#284388"/>
              <rect id="Rectángulo_7049" data-name="Rectángulo 7049" width="7.811" height="6.371" fill="#284388" opacity="0.1"/>
            </g>
            <g id="Grupo_62748" data-name="Grupo 62748" transform="translate(279.768 121.75)">
              <rect id="Rectángulo_7050" data-name="Rectángulo 7050" width="7.811" height="85.786" fill="#284388"/>
              <rect id="Rectángulo_7051" data-name="Rectángulo 7051" width="7.811" height="6.371" fill="#284388" opacity="0.1"/>
            </g>
            <g id="Grupo_62753" data-name="Grupo 62753" transform="translate(272.491 177.601)">
              <g id="Grupo_62752" data-name="Grupo 62752">
                <g id="Grupo_62749" data-name="Grupo 62749">
                  <path id="Trazado_112198" data-name="Trazado 112198" d="M789.548,6788.552a13.386,13.386,0,0,1-1.288,1.813H759.354a4.132,4.132,0,0,1-1.2-1.622,2.436,2.436,0,0,1,.362-2.451,1.665,1.665,0,0,1,2.318-.144,6.582,6.582,0,0,1,2.842-3.319,2.964,2.964,0,0,1,3.882,1.05c.334-1.717.706-3.529,1.907-4.8a5.343,5.343,0,0,1,4.54-1.526,7.268,7.268,0,0,1,4.292,2.308,3.756,3.756,0,0,1,1.192,2.441,4.244,4.244,0,0,1,7.639,3.491,1.786,1.786,0,0,1,2.146.5A2.311,2.311,0,0,1,789.548,6788.552Z" transform="translate(-757.979 -6777.51)" fill="#8ebd00"/>
                </g>
                <g id="Grupo_62750" data-name="Grupo 62750" transform="translate(0.86 12.052)">
                  <path id="Trazado_112199" data-name="Trazado 112199" d="M788.579,6790.013v12.236a5.654,5.654,0,0,1-5.655,5.646h-18.4a5.647,5.647,0,0,1-5.655-5.646v-12.236Z" transform="translate(-758.871 -6790.013)" fill="#ffad5d"/>
                </g>
                <g id="Grupo_62751" data-name="Grupo 62751" transform="translate(0.86 12.052)" opacity="0.1">
                  <rect id="Rectángulo_7052" data-name="Rectángulo 7052" width="29.708" height="5.169"/>
                </g>
              </g>
            </g>
            <g id="Grupo_62759" data-name="Grupo 62759" transform="translate(228.243 165.448)">
              <g id="Grupo_62758" data-name="Grupo 62758">
                <path id="Trazado_112200" data-name="Trazado 112200" d="M741.328,6790.013v12.236a5.654,5.654,0,0,1-5.655,5.646h-8.861a5.647,5.647,0,0,1-5.655-5.646v-12.236Z" transform="translate(-712.403 -6765.807)" fill="#5d7ac4"/>
                <g id="Grupo_62754" data-name="Grupo 62754" transform="translate(8.754 24.206)" opacity="0.1">
                  <rect id="Rectángulo_7053" data-name="Rectángulo 7053" width="20.171" height="5.169"/>
                </g>
                <g id="Grupo_62755" data-name="Grupo 62755" transform="translate(0 8.74)">
                  <path id="Trazado_112201" data-name="Trazado 112201" d="M721.08,6789.438s-8.485-5.335-9-15.465c0,0,12.269-.674,18.24,15.465Z" transform="translate(-712.076 -6773.969)" fill="#6b9600"/>
                </g>
                <g id="Grupo_62756" data-name="Grupo 62756" transform="translate(12.648)">
                  <path id="Trazado_112202" data-name="Trazado 112202" d="M726.422,6789.111s-4.675-15.379,4.242-24.209c0,0,7.792,5.217,3.2,24.209Z" transform="translate(-725.197 -6764.902)" fill="#8ebd00"/>
                </g>
                <g id="Grupo_62757" data-name="Grupo 62757" transform="translate(19.202 6.839)">
                  <path id="Trazado_112203" data-name="Trazado 112203" d="M732.036,6789.367s-1.3-11.223,11-17.37c0,0,4.468,7.468-1.316,17.37Z" transform="translate(-731.996 -6771.997)" fill="#6b9600"/>
                </g>
              </g>
            </g>
          </g>
        </g>
      </g>
      <g id="Grupo_62777" data-name="Grupo 62777" transform="translate(0.937 66.518)">
        <g id="Grupo_62763" data-name="Grupo 62763" transform="translate(99.375)">
          <path id="Trazado_112204" data-name="Trazado 112204" d="M156.113,6816.715a4.825,4.825,0,1,1-9.638.018l-.386-183.373a4.824,4.824,0,1,1,9.637-.02Z" transform="translate(-146.089 -6628.297)" fill="#575757"/>
        </g>
        <g id="Grupo_62768" data-name="Grupo 62768" transform="translate(88.479 186.836)">
          <g id="Grupo_62764" data-name="Grupo 62764" transform="translate(2.081 2.273)">
            <path id="Trazado_112205" data-name="Trazado 112205" d="M136.944,6832.847s7.175-4.514,7.167-8.351l6.855-.015.02,10.09Z" transform="translate(-136.944 -6824.481)" fill="#575757"/>
          </g>
          <g id="Grupo_62765" data-name="Grupo 62765" transform="translate(16.103 2.259)">
            <path id="Trazado_112206" data-name="Trazado 112206" d="M165.544,6832.786s-7.191-4.481-7.2-8.32l-6.856.015.02,10.09Z" transform="translate(-151.49 -6824.466)" fill="#575757"/>
          </g>
          <g id="Grupo_62766" data-name="Grupo 62766" transform="translate(0 10.578)">
            <path id="Trazado_112207" data-name="Trazado 112207" d="M157.325,6839.365l-21.213.044a1.323,1.323,0,0,1-1.321-1.314l-.006-3.619a1.319,1.319,0,0,1,1.315-1.317l29.613-.063a1.322,1.322,0,0,1,1.32,1.313l.006,3.619a1.318,1.318,0,0,1-1.312,1.319l-8.4.018Z" transform="translate(-134.785 -6833.096)" fill="#94949b"/>
          </g>
          <g id="Grupo_62767" data-name="Grupo 62767" transform="translate(7.871)">
            <path id="Rectángulo_7055" data-name="Rectángulo 7055" d="M1.366,0H15.087a1.365,1.365,0,0,1,1.365,1.365V2.809a1.366,1.366,0,0,1-1.366,1.366H1.366A1.366,1.366,0,0,1,0,2.809V1.366A1.366,1.366,0,0,1,1.366,0Z" transform="matrix(1, -0.002, 0.002, 1, 0, 0.035)" fill="#94949b"/>
          </g>
        </g>
        <g id="Grupo_62769" data-name="Grupo 62769" transform="translate(95.358 8.692)">
          <path id="Trazado_112208" data-name="Trazado 112208" d="M159.616,6640.386a1.419,1.419,0,0,1-1.412,1.418l-14.861.031a1.418,1.418,0,0,1-1.418-1.412l0-1.66a1.418,1.418,0,0,1,1.412-1.418l14.86-.032a1.418,1.418,0,0,1,1.419,1.411Z" transform="translate(-141.921 -6637.314)" fill="#94949b"/>
        </g>
        <g id="Grupo_62770" data-name="Grupo 62770" transform="translate(106.99 32.962)">
          <path id="Trazado_112209" data-name="Trazado 112209" d="M153.988,6664.494c0-1.076.577-1.953,1.292-1.956l14.72-.046c.715,0,1.3.872,1.3,1.954v0c0,1.075-.577,1.95-1.292,1.955l-14.72.047c-.715,0-1.3-.873-1.3-1.953Z" transform="translate(-153.988 -6662.492)" fill="#575757"/>
        </g>
        <g id="Grupo_62771" data-name="Grupo 62771" transform="translate(117.584 18.221)">
          <path id="Trazado_112210" data-name="Trazado 112210" d="M185.018,6681.551l-19.291.059-.049-33.35,19.292-.058Z" transform="translate(-165.004 -6647.235)" fill="#575757"/>
          <path id="Trazado_112211" data-name="Trazado 112211" d="M165.03,6682.54l-.051-35.279,20.636-.062.052,35.278Zm1.3-33.354.046,31.421,17.946-.055-.047-31.42Z" transform="translate(-164.979 -6647.199)" fill="#575757"/>
        </g>
        <path id="Trazado_112212" data-name="Trazado 112212" d="M126.622,6628.3h4.384l-2.192,3.328,5.3-1.187-5.3,9.955,5.3-2.832L123.243,6656.1l4.658-13.152-3.471,1.918,4.247-9.59-2.968,1.1Z" transform="translate(-45.89 -6628.297)" fill="#575757"/>
        <path id="Trazado_112213" data-name="Trazado 112213" d="M484.237,6715.641c-160-6.272-269.207-51.812-270.292-52.271l-36.991-13.826-11.55,2.9-4.678-8.558a13.679,13.679,0,0,1-10.526,7.511l-.393.044-5.767-1.741c-19.75,10.255-97.694,8.545-101.043,8.466l.091-3.854c.821.016,82.266,1.811,99.767-8.358l.724-.421,6.545,1.976a9.577,9.577,0,0,0,8.034-8.968l.488-6.5,8.713,15.938,9.823-2.462,38.191,14.276c1.155.487,109.767,45.755,269.015,52Z" transform="translate(-42.996 -6628.432)" fill="#575757"/>
        <circle id="Elipse_4212" data-name="Elipse 4212" cx="4.026" cy="4.026" r="4.026" transform="translate(438.165 81.692)" fill="#575757"/>
        <rect id="Rectángulo_7056" data-name="Rectángulo 7056" width="3.856" height="48.498" transform="translate(439.175 87.263)" fill="#575757"/>
        <g id="Grupo_62776" data-name="Grupo 62776" transform="translate(428.504 126.577)">
          <g id="Grupo_62772" data-name="Grupo 62772">
            <rect id="Rectángulo_7057" data-name="Rectángulo 7057" width="18.815" height="18.498" transform="translate(0.482 0.482)" fill="#fff"/>
            <path id="Trazado_112214" data-name="Trazado 112214" d="M507.309,6779.072H487.53v-19.463h19.779Zm-18.815-.964h17.851v-17.535H488.494Z" transform="translate(-487.53 -6759.609)" fill="#575757"/>
          </g>
          <g id="Grupo_62773" data-name="Grupo 62773" transform="translate(18.815)">
            <rect id="Rectángulo_7058" data-name="Rectángulo 7058" width="5.845" height="18.498" transform="translate(0.481 0.482)" fill="#fff"/>
            <path id="Trazado_112215" data-name="Trazado 112215" d="M513.857,6779.072h-6.808v-19.463h6.808Zm-5.844-.964h4.88v-17.535h-4.88Z" transform="translate(-507.049 -6759.609)" fill="#575757"/>
          </g>
          <g id="Grupo_62774" data-name="Grupo 62774" transform="translate(3.151 5.849)">
            <path id="Trazado_112216" data-name="Trazado 112216" d="M498.879,6770.538a4.58,4.58,0,0,1-4.772,4.362c-1.53,0-2.808-1.953-2.808-4.362s.913-4.361,2.808-4.361A4.581,4.581,0,0,1,498.879,6770.538Z" transform="translate(-490.817 -6765.695)" fill="#fff"/>
            <path id="Trazado_112217" data-name="Trazado 112217" d="M494.09,6775.363c-1.815,0-3.291-2.171-3.291-4.843,0-2.942,1.291-4.843,3.291-4.843a4.859,4.859,0,1,1,0,9.686Zm0-8.722c-1.717,0-2.327,2-2.327,3.879,0,2.1,1.065,3.879,2.327,3.879a3.9,3.9,0,1,0,0-7.758Z" transform="translate(-490.799 -6765.677)" fill="#575757"/>
          </g>
          <g id="Grupo_62775" data-name="Grupo 62775" transform="translate(3.151 5.849)">
            <ellipse id="Elipse_4213" data-name="Elipse 4213" cx="2.603" cy="4.361" rx="2.603" ry="4.361" transform="translate(0.482 0.482)" fill="#fff"/>
            <path id="Trazado_112218" data-name="Trazado 112218" d="M493.884,6775.363c-1.73,0-3.085-2.127-3.085-4.843s1.354-4.843,3.085-4.843,3.086,2.127,3.086,4.843S495.614,6775.363,493.884,6775.363Zm0-8.722c-1.15,0-2.121,1.776-2.121,3.879s.971,3.879,2.121,3.879,2.122-1.776,2.122-3.879S495.034,6766.641,493.884,6766.641Z" transform="translate(-490.799 -6765.677)" fill="#575757"/>
          </g>
        </g>
      </g>
      <rect id="Rectángulo_7059" data-name="Rectángulo 7059" width="2.101" height="33.95" transform="translate(85.232 257.561)" fill="#575757"/>
      <path id="Trazado_112219" data-name="Trazado 112219" d="M134.69,6825.386h-2.572v-1.928h2.572s.968-.129,1.118-2.448c.215-3.278,0-166.764,0-168.414l1.928,0c.01,6.744.217,165.2,0,168.542C137.458,6825.339,134.8,6825.386,134.69,6825.386Z" transform="translate(-45.273 -6562.655)" fill="#575757"/>
      <path id="Trazado_112220" data-name="Trazado 112220" d="M42.425,6912.508l-.4-1.887c34.216-7.291,55.2-26.456,66.78-41.25,12.568-16.057,17.091-30.583,17.135-30.729l1.844.562c-.045.148-4.645,14.959-17.411,31.29C98.594,6885.565,77.244,6905.087,42.425,6912.508Z" transform="translate(-42.024 -6569.364)" fill="#575757"/>
      <path id="Trazado_112221" data-name="Trazado 112221" d="M435.643,6967.7a541.143,541.143,0,0,1-111.158-12.081c-38.828-8.46-73.8-21-103.947-37.28-37.716-20.364-67.938-46.665-89.826-78.167l1.583-1.1c49.195,70.8,131.89,101.436,192.6,114.663,65.839,14.347,120.707,11.888,121.249,11.862l.094,1.926C446.1,6967.533,442.313,6967.7,435.643,6967.7Z" transform="translate(-45.222 -6569.38)" fill="#575757"/>
      <path id="Trazado_112222" data-name="Trazado 112222" d="M511.542,6790.275a10.876,10.876,0,0,1-8.665-11.746l1.911.249-.955-.124.956.121c-.039.31-.849,7.591,7.226,9.629Z" transform="translate(-58.641 -6567.197)" fill="#575757"/>
      <path id="Trazado_112223" data-name="Trazado 112223" d="M521.249,6851.96l-1.928-.012.228-37.935c.012-.157.618-7.152-4.055-11.829a5.925,5.925,0,0,0-4.169-2h-.045a6.61,6.61,0,0,0-4.18,1.875l-1.4-1.328a8.492,8.492,0,0,1,5.534-2.474,7.582,7.582,0,0,1,5.62,2.565c5.329,5.333,4.647,12.969,4.615,13.292Z" transform="translate(-58.744 -6567.908)" fill="#575757"/>
      <g id="Grupo_62779" data-name="Grupo 62779" transform="translate(382.773 273.884)">
        <rect id="Rectángulo_7060" data-name="Rectángulo 7060" width="1.928" height="50.646" transform="translate(8.648 13.835)" fill="#575757"/>
        <g id="Grupo_62778" data-name="Grupo 62778">
          <path id="Trazado_112224" data-name="Trazado 112224" d="M458.341,6860.067l-9.612-16.647-9.613,16.647Z" transform="translate(-439.116 -6843.42)" fill="#575757"/>
        </g>
      </g>
      <g id="Grupo_62781" data-name="Grupo 62781" transform="translate(382.772 356.388)">
        <rect id="Rectángulo_7061" data-name="Rectángulo 7061" width="1.928" height="26.232" transform="translate(8.649)" fill="#575757"/>
        <g id="Grupo_62780" data-name="Grupo 62780" transform="translate(0 23.418)">
          <path id="Trazado_112225" data-name="Trazado 112225" d="M439.115,6953.305l9.612,16.647,9.613-16.647Z" transform="translate(-439.115 -6953.305)" fill="#575757"/>
        </g>
      </g>
      <g id="Grupo_62783" data-name="Grupo 62783" transform="translate(456.761 210.626)">
        <rect id="Rectángulo_7062" data-name="Rectángulo 7062" width="18.405" height="1.928" transform="translate(11.389 9.438) rotate(-30.849)" fill="#575757"/>
        <g id="Grupo_62782" data-name="Grupo 62782" transform="translate(0 0.564)">
          <path id="Trazado_112226" data-name="Trazado 112226" d="M525.244,6778.381l-9.372,16.783,19.221-.272Z" transform="translate(-515.872 -6778.381)" fill="#575757"/>
        </g>
      </g>
      <g id="Grupo_62784" data-name="Grupo 62784" transform="translate(28.34 36.024)">
        <path id="Trazado_112227" data-name="Trazado 112227" d="M80.709,6608.093H74.821v7.211h-3.4v-17.354H81.746v2.706H74.821v4.732h5.888Z" transform="translate(-71.424 -6596.709)" fill="#575757"/>
        <path id="Trazado_112228" data-name="Trazado 112228" d="M87.31,6615.257H83.925v-18.594H87.31Z" transform="translate(-71.875 -6596.663)" fill="#575757"/>
        <path id="Trazado_112229" data-name="Trazado 112229" d="M96.15,6615.461a5.952,5.952,0,0,1-.256-.7,5.648,5.648,0,0,1-.173-.775,4.045,4.045,0,0,1-1.163,1.257,2.743,2.743,0,0,1-1.591.471,3.3,3.3,0,0,1-2.556-1.048,3.988,3.988,0,0,1-.959-2.8,3.669,3.669,0,0,1,1.221-2.944,5.437,5.437,0,0,1,3.629-1.05h1.275v-1.049a2.593,2.593,0,0,0-.339-1.448,1.147,1.147,0,0,0-1.019-.507.982.982,0,0,0-.859.406,2.035,2.035,0,0,0-.285,1.18l-3.278-.012-.036-.072a3.538,3.538,0,0,1,1.245-2.86,4.928,4.928,0,0,1,3.438-1.18,4.6,4.6,0,0,1,3.273,1.175,4.351,4.351,0,0,1,1.258,3.343v5.221a11.363,11.363,0,0,0,.13,1.775,9.756,9.756,0,0,0,.4,1.621Zm-2.205-2.3a1.739,1.739,0,0,0,.948-.273,2.035,2.035,0,0,0,.685-.7v-2.373H94.3a1.232,1.232,0,0,0-1.12.536,2.464,2.464,0,0,0-.345,1.358,1.728,1.728,0,0,0,.3,1.05A.951.951,0,0,0,93.945,6613.161Z" transform="translate(-72.074 -6596.867)" fill="#575757"/>
        <path id="Trazado_112230" data-name="Trazado 112230" d="M104.728,6602.565l.131,1.644a3.849,3.849,0,0,1,1.288-1.394,3.255,3.255,0,0,1,1.776-.489,2.861,2.861,0,0,1,1.7.518,3.207,3.207,0,0,1,1.109,1.58,4.024,4.024,0,0,1,1.287-1.55,3.13,3.13,0,0,1,1.835-.548,2.918,2.918,0,0,1,2.521,1.317,7.053,7.053,0,0,1,.923,4.023v7.795h-3.4v-7.8a4.556,4.556,0,0,0-.322-2.058,1.073,1.073,0,0,0-1-.567,1.407,1.407,0,0,0-.87.287,2.182,2.182,0,0,0-.631.788c.008.15.016.3.024.447s.012.3.012.459v8.449h-3.373v-7.8a4.5,4.5,0,0,0-.329-2.053,1.093,1.093,0,0,0-1.018-.572,1.5,1.5,0,0,0-.829.233,2.05,2.05,0,0,0-.626.65v9.546H101.57v-12.9Z" transform="translate(-72.511 -6596.867)" fill="#575757"/>
        <path id="Trazado_112231" data-name="Trazado 112231" d="M125.2,6615.712a4.929,4.929,0,0,1-3.863-1.6,5.818,5.818,0,0,1-1.43-4.03v-1.811a6.659,6.659,0,0,1,1.328-4.28,4.441,4.441,0,0,1,3.677-1.668,4.273,4.273,0,0,1,3.5,1.514,6.322,6.322,0,0,1,1.24,4.125v2.074h-6.376v.047a3.566,3.566,0,0,0,.578,2.1,1.991,1.991,0,0,0,1.746.822,4.645,4.645,0,0,0,1.549-.215,8.019,8.019,0,0,0,1.419-.715l.859,2.158a5.109,5.109,0,0,1-1.782,1.06A6.944,6.944,0,0,1,125.2,6615.712Zm-.286-10.68a1.257,1.257,0,0,0-1.191.742,4.786,4.786,0,0,0-.429,2h3.039v-.479a3.435,3.435,0,0,0-.334-1.669A1.149,1.149,0,0,0,124.914,6605.032Z" transform="translate(-73.172 -6596.867)" fill="#575757"/>
        <path id="Trazado_112232" data-name="Trazado 112232" d="M131.37,6608.226a6.408,6.408,0,0,1,1.377-4.249,5.335,5.335,0,0,1,7.717,0,6.4,6.4,0,0,1,1.382,4.249v1.6a6.356,6.356,0,0,1-1.382,4.255,5.374,5.374,0,0,1-7.717,0,6.369,6.369,0,0,1-1.377-4.255Zm3.374,1.593a5.374,5.374,0,0,0,.416,2.339,1.486,1.486,0,0,0,1.455.848,1.468,1.468,0,0,0,1.425-.854,5.331,5.331,0,0,0,.422-2.333v-1.6a5.352,5.352,0,0,0-.422-2.322,1.623,1.623,0,0,0-2.874.006,5.357,5.357,0,0,0-.422,2.316Z" transform="translate(-73.586 -6596.867)" fill="#575757"/>
      </g>
      <g id="Grupo_62786" data-name="Grupo 62786" transform="translate(9.482 211.191)">
        <g id="Grupo_62785" data-name="Grupo 62785">
          <path id="Trazado_112233" data-name="Trazado 112233" d="M55.545,6787.417v5.064H52.786v-14.1h4.9a4.522,4.522,0,1,1,0,9.034Zm0-2.2h2.14a1.551,1.551,0,0,0,1.346-.649,2.769,2.769,0,0,0,.466-1.65,2.87,2.87,0,0,0-.461-1.674,1.535,1.535,0,0,0-1.35-.664h-2.14Z" transform="translate(-51.894 -6778.383)" fill="#575757"/>
          <path id="Trazado_112234" data-name="Trazado 112234" d="M69.552,6791.407a3.1,3.1,0,0,1-1.032,1.05,2.61,2.61,0,0,1-1.37.364,2.581,2.581,0,0,1-2.193-1.061,5.52,5.52,0,0,1-.789-3.288v-6.332h2.75v6.359a3.609,3.609,0,0,0,.271,1.619.864.864,0,0,0,.8.5,1.8,1.8,0,0,0,.8-.168,1.607,1.607,0,0,0,.585-.5v-7.813h2.76v10.477h-2.42Z" transform="translate(-52.305 -6778.518)" fill="#575757"/>
          <path id="Trazado_112235" data-name="Trazado 112235" d="M78.3,6792.813a4,4,0,0,1-3.138-1.3A4.723,4.723,0,0,1,74,6788.242v-1.472a5.406,5.406,0,0,1,1.08-3.476,3.605,3.605,0,0,1,2.986-1.356,3.473,3.473,0,0,1,2.847,1.231,5.136,5.136,0,0,1,1.006,3.35v1.685h-5.18v.039a2.9,2.9,0,0,0,.47,1.7,1.617,1.617,0,0,0,1.418.668,3.8,3.8,0,0,0,1.259-.174,6.624,6.624,0,0,0,1.152-.581l.7,1.752a4.159,4.159,0,0,1-1.448.862A5.645,5.645,0,0,1,78.3,6792.813Zm-.233-8.676a1.023,1.023,0,0,0-.969.6,3.929,3.929,0,0,0-.348,1.623h2.47v-.388a2.781,2.781,0,0,0-.272-1.356A.934.934,0,0,0,78.068,6784.137Z" transform="translate(-52.659 -6778.511)" fill="#575757"/>
          <path id="Trazado_112236" data-name="Trazado 112236" d="M88.2,6789.87a1.018,1.018,0,0,0-.348-.77,5.859,5.859,0,0,0-1.337-.8,7.067,7.067,0,0,1-2.367-1.337,2.539,2.539,0,0,1-.789-1.936,2.828,2.828,0,0,1,1.012-2.184,3.864,3.864,0,0,1,2.677-.906,4.014,4.014,0,0,1,2.779.93,2.934,2.934,0,0,1,1,2.372l-.029.059H88.138a1.8,1.8,0,0,0-.271-1.046.951.951,0,0,0-.834-.388,1.045,1.045,0,0,0-.755.3,1.033,1.033,0,0,0,0,1.477,6.252,6.252,0,0,0,1.346.78,6.52,6.52,0,0,1,2.441,1.332,2.863,2.863,0,0,1-.272,4.207,4.347,4.347,0,0,1-2.8.853,3.874,3.874,0,0,1-2.866-1.056,3.117,3.117,0,0,1-1.007-2.383l.019-.057h2.518a1.7,1.7,0,0,0,.388,1.2,1.369,1.369,0,0,0,1.017.369,1.192,1.192,0,0,0,.842-.272A.971.971,0,0,0,88.2,6789.87Z" transform="translate(-52.988 -6778.511)" fill="#575757"/>
          <path id="Trazado_112237" data-name="Trazado 112237" d="M95.821,6779.437v2.605h1.453v1.995H95.821v5.258a1.7,1.7,0,0,0,.185.915.572.572,0,0,0,.5.276,3.25,3.25,0,0,0,.427-.024,3.1,3.1,0,0,0,.388-.082l.213,2.091a5.371,5.371,0,0,1-.834.193,6.265,6.265,0,0,1-.9.059,2.531,2.531,0,0,1-2.029-.818,3.948,3.948,0,0,1-.7-2.6v-5.268h-1.24v-1.995h1.24v-2.605Z" transform="translate(-53.302 -6778.421)" fill="#575757"/>
          <path id="Trazado_112238" data-name="Trazado 112238" d="M104.174,6792.61a4.634,4.634,0,0,1-.208-.571,4.561,4.561,0,0,1-.141-.629,3.279,3.279,0,0,1-.944,1.022,2.227,2.227,0,0,1-1.293.382,2.681,2.681,0,0,1-2.077-.853,3.241,3.241,0,0,1-.78-2.275,2.982,2.982,0,0,1,.993-2.392,4.418,4.418,0,0,1,2.949-.853h1.036v-.853a2.1,2.1,0,0,0-.277-1.175.929.929,0,0,0-.827-.413.8.8,0,0,0-.7.33,1.659,1.659,0,0,0-.232.958l-2.662-.01-.029-.057A2.87,2.87,0,0,1,100,6782.9a4,4,0,0,1,2.793-.959,3.735,3.735,0,0,1,2.659.956,3.532,3.532,0,0,1,1.021,2.715v4.24a9.235,9.235,0,0,0,.107,1.443,7.813,7.813,0,0,0,.33,1.317Zm-1.792-1.869a1.413,1.413,0,0,0,.77-.223,1.665,1.665,0,0,0,.557-.571v-1.927h-1.036a1,1,0,0,0-.91.436,2,2,0,0,0-.281,1.1,1.4,1.4,0,0,0,.242.851A.771.771,0,0,0,102.382,6790.741Z" transform="translate(-53.551 -6778.511)" fill="#575757"/>
          <path id="Trazado_112239" data-name="Trazado 112239" d="M118.167,6792.61a4.634,4.634,0,0,1-.208-.571,4.7,4.7,0,0,1-.141-.629,3.279,3.279,0,0,1-.944,1.022,2.227,2.227,0,0,1-1.293.382,2.681,2.681,0,0,1-2.077-.853,3.241,3.241,0,0,1-.78-2.275,2.98,2.98,0,0,1,.994-2.392,4.415,4.415,0,0,1,2.948-.853H117.7v-.853a2.093,2.093,0,0,0-.277-1.175.928.928,0,0,0-.827-.413.8.8,0,0,0-.7.33,1.659,1.659,0,0,0-.232.958l-2.662-.01-.029-.057a2.87,2.87,0,0,1,1.012-2.324,4,4,0,0,1,2.793-.959,3.735,3.735,0,0,1,2.659.956,3.533,3.533,0,0,1,1.022,2.715v4.24a9.24,9.24,0,0,0,.106,1.443,7.813,7.813,0,0,0,.33,1.317Zm-1.792-1.869a1.413,1.413,0,0,0,.77-.223,1.665,1.665,0,0,0,.557-.571v-1.927h-1.036a1,1,0,0,0-.91.436,2,2,0,0,0-.281,1.1,1.4,1.4,0,0,0,.242.851A.771.771,0,0,0,116.375,6790.741Z" transform="translate(-54.056 -6778.511)" fill="#575757"/>
          <path id="Trazado_112240" data-name="Trazado 112240" d="M55.851,6804.125v2.6H57.3v1.995H55.851v5.258a1.71,1.71,0,0,0,.184.916.576.576,0,0,0,.5.275,3.075,3.075,0,0,0,.426-.025,2.935,2.935,0,0,0,.388-.082l.213,2.091a5.447,5.447,0,0,1-.833.194,6.224,6.224,0,0,1-.9.058,2.524,2.524,0,0,1-2.028-.818,3.939,3.939,0,0,1-.7-2.6v-5.268h-1.24v-1.995H53.1v-2.6Z" transform="translate(-51.861 -6779.311)" fill="#575757"/>
          <path id="Trazado_112241" data-name="Trazado 112241" d="M61.994,6804.126H59.245v-2.1h2.749Zm0,13H59.245v-10.477h2.749Z" transform="translate(-52.127 -6779.235)" fill="#575757"/>
          <path id="Trazado_112242" data-name="Trazado 112242" d="M68.154,6817.5a4,4,0,0,1-3.138-1.3,4.723,4.723,0,0,1-1.162-3.272v-1.472a5.41,5.41,0,0,1,1.08-3.477,3.609,3.609,0,0,1,2.987-1.355,3.473,3.473,0,0,1,2.847,1.23,5.139,5.139,0,0,1,1.007,3.351v1.685H66.6v.039a2.889,2.889,0,0,0,.469,1.7,1.619,1.619,0,0,0,1.419.668,3.8,3.8,0,0,0,1.259-.174,6.609,6.609,0,0,0,1.152-.58l.7,1.752a4.2,4.2,0,0,1-1.448.862A5.65,5.65,0,0,1,68.154,6817.5Zm-.232-8.677a1.024,1.024,0,0,0-.969.6,3.9,3.9,0,0,0-.348,1.624h2.469v-.389a2.8,2.8,0,0,0-.271-1.356A.935.935,0,0,0,67.922,6808.824Z" transform="translate(-52.293 -6779.401)" fill="#575757"/>
          <path id="Trazado_112243" data-name="Trazado 112243" d="M78.457,6809.328l-1.036-.03a1.173,1.173,0,0,0-.721.214,1.337,1.337,0,0,0-.441.6v7.185H73.508V6806.82h2.567l.106,1.4.049.019a2.855,2.855,0,0,1,.7-1.187,1.469,1.469,0,0,1,1.051-.431,2.447,2.447,0,0,1,.391.034,2.765,2.765,0,0,1,.363.083Z" transform="translate(-52.642 -6779.401)" fill="#575757"/>
          <path id="Trazado_112244" data-name="Trazado 112244" d="M85.037,6809.328,84,6809.3a1.173,1.173,0,0,0-.721.214,1.344,1.344,0,0,0-.441.6v7.185h-2.75V6806.82h2.566l.106,1.4.049.019a2.855,2.855,0,0,1,.7-1.187,1.469,1.469,0,0,1,1.051-.431,2.447,2.447,0,0,1,.391.034,2.765,2.765,0,0,1,.363.083Z" transform="translate(-52.879 -6779.401)" fill="#575757"/>
          <path id="Trazado_112245" data-name="Trazado 112245" d="M91.758,6817.3a4.614,4.614,0,0,1-.208-.572,4.476,4.476,0,0,1-.141-.629,3.275,3.275,0,0,1-.944,1.022,2.231,2.231,0,0,1-1.293.382,2.679,2.679,0,0,1-2.077-.853,3.24,3.24,0,0,1-.78-2.274,2.98,2.98,0,0,1,.993-2.392,4.415,4.415,0,0,1,2.949-.853h1.036v-.853a2.1,2.1,0,0,0-.277-1.176.929.929,0,0,0-.827-.413.8.8,0,0,0-.7.33,1.663,1.663,0,0,0-.232.958l-2.662-.009-.029-.059a2.868,2.868,0,0,1,1.012-2.323,4,4,0,0,1,2.793-.959,3.739,3.739,0,0,1,2.659.955,3.533,3.533,0,0,1,1.021,2.715v4.241a9.258,9.258,0,0,0,.107,1.443,7.79,7.79,0,0,0,.33,1.316Zm-1.792-1.868a1.41,1.41,0,0,0,.77-.224,1.648,1.648,0,0,0,.557-.571v-1.927H90.258a1,1,0,0,0-.91.437,1.992,1.992,0,0,0-.281,1.1,1.4,1.4,0,0,0,.242.852A.774.774,0,0,0,89.966,6815.429Z" transform="translate(-53.103 -6779.401)" fill="#575757"/>
        </g>
      </g>
      <g id="Grupo_62787" data-name="Grupo 62787" transform="translate(459.31 174.851)">
        <path id="Trazado_112246" data-name="Trazado 112246" d="M525.215,6748.408l.022.044a3.531,3.531,0,0,1-.8,2.554,3.174,3.174,0,0,1-2.415.863,3.4,3.4,0,0,1-2.548-.979,3.8,3.8,0,0,1-.954-2.771v-3.072a3.9,3.9,0,0,1,.922-2.77,3.218,3.218,0,0,1,2.468-.985,3.273,3.273,0,0,1,2.474.875,3.717,3.717,0,0,1,.865,2.592l-.021.042h-1.935a2.385,2.385,0,0,0-.276-1.46,1.264,1.264,0,0,0-1.108-.446,1.181,1.181,0,0,0-1.038.53,2.886,2.886,0,0,0-.36,1.6v3.088a2.762,2.762,0,0,0,.385,1.618,1.3,1.3,0,0,0,1.126.53,1.138,1.138,0,0,0,1.013-.419,2.522,2.522,0,0,0,.252-1.437Z" transform="translate(-518.516 -6740.705)" fill="#575757"/>
        <path id="Trazado_112247" data-name="Trazado 112247" d="M526.368,6747.534a3.8,3.8,0,0,1,.815-2.517,3.159,3.159,0,0,1,4.572,0,3.791,3.791,0,0,1,.818,2.517v.944a3.773,3.773,0,0,1-.818,2.521,3.183,3.183,0,0,1-4.572,0,3.777,3.777,0,0,1-.815-2.521Zm2,.941a3.194,3.194,0,0,0,.247,1.387.88.88,0,0,0,.861.5.867.867,0,0,0,.843-.505,3.147,3.147,0,0,0,.252-1.383v-.946a3.156,3.156,0,0,0-.252-1.376.96.96,0,0,0-1.7,0,3.158,3.158,0,0,0-.251,1.372Z" transform="translate(-518.799 -6740.804)" fill="#575757"/>
        <path id="Trazado_112248" data-name="Trazado 112248" d="M535.738,6744.179l.085,1.051a2.555,2.555,0,0,1,.781-.878,1.866,1.866,0,0,1,2.52.42,3.884,3.884,0,0,1,.547,2.309v4.737h-2.013v-4.742a2.056,2.056,0,0,0-.222-1.113.779.779,0,0,0-.689-.321.908.908,0,0,0-.493.142,1.18,1.18,0,0,0-.382.388v5.646h-2.005v-7.639Z" transform="translate(-519.07 -6740.804)" fill="#575757"/>
        <path id="Trazado_112249" data-name="Trazado 112249" d="M540.914,6747.92a5.57,5.57,0,0,1,.663-2.9,2.076,2.076,0,0,1,1.872-1.1,1.552,1.552,0,0,1,.8.212,2.093,2.093,0,0,1,.643.608v-4.054H546.9V6751.7h-1.745l-.134-.833a2.243,2.243,0,0,1-.687.73,1.625,1.625,0,0,1-.894.252,2.1,2.1,0,0,1-1.868-1.036,5.044,5.044,0,0,1-.659-2.742Zm2.005.149a4.339,4.339,0,0,0,.236,1.6.821.821,0,0,0,.8.573,1,1,0,0,0,.543-.145,1.206,1.206,0,0,0,.4-.421v-3.485a1.419,1.419,0,0,0-.4-.495.837.837,0,0,0-1.333.481,5.037,5.037,0,0,0-.248,1.742Z" transform="translate(-519.324 -6740.683)" fill="#575757"/>
        <path id="Trazado_112250" data-name="Trazado 112250" d="M552.355,6750.94a2.243,2.243,0,0,1-.753.766,2.026,2.026,0,0,1-2.6-.508,4.024,4.024,0,0,1-.575-2.4v-4.617h2v4.637a2.612,2.612,0,0,0,.2,1.181.627.627,0,0,0,.585.366,1.319,1.319,0,0,0,.582-.123,1.176,1.176,0,0,0,.427-.364v-5.7h2.013v7.639h-1.765Z" transform="translate(-519.595 -6740.81)" fill="#575757"/>
        <path id="Trazado_112251" data-name="Trazado 112251" d="M558.545,6750.364a.7.7,0,0,0,.618-.3,1.54,1.54,0,0,0,.208-.875h1.822l.021.043a2.585,2.585,0,0,1-2.669,2.74,2.772,2.772,0,0,1-2.276-.968,3.809,3.809,0,0,1-.8-2.5v-.982a3.849,3.849,0,0,1,.791-2.5,2.742,2.742,0,0,1,2.266-.979,2.547,2.547,0,0,1,1.973.8,3,3,0,0,1,.709,2.153l-.014.037h-1.829a2.083,2.083,0,0,0-.208-1,.676.676,0,0,0-.631-.38.826.826,0,0,0-.826.508,3.411,3.411,0,0,0-.227,1.365v.983a3.364,3.364,0,0,0,.227,1.372A.838.838,0,0,0,558.545,6750.364Z" transform="translate(-519.849 -6740.804)" fill="#575757"/>
        <path id="Trazado_112252" data-name="Trazado 112252" d="M564.8,6742.215v1.9h1.059v1.454H564.8v3.833a1.231,1.231,0,0,0,.135.667.413.413,0,0,0,.366.2,2.434,2.434,0,0,0,.311-.017,2.408,2.408,0,0,0,.282-.061l.154,1.524a4.138,4.138,0,0,1-.606.142,4.638,4.638,0,0,1-.657.043,1.841,1.841,0,0,1-1.479-.6,2.88,2.88,0,0,1-.512-1.9v-3.842h-.9v-1.454h.9v-1.9Z" transform="translate(-520.08 -6740.738)" fill="#575757"/>
        <path id="Trazado_112253" data-name="Trazado 112253" d="M566.783,6747.534a3.8,3.8,0,0,1,.815-2.517,3.159,3.159,0,0,1,4.572,0,3.791,3.791,0,0,1,.818,2.517v.944a3.773,3.773,0,0,1-.818,2.521,3.183,3.183,0,0,1-4.572,0,3.776,3.776,0,0,1-.815-2.521Zm2,.941a3.194,3.194,0,0,0,.247,1.387.88.88,0,0,0,.862.5.868.868,0,0,0,.844-.505,3.161,3.161,0,0,0,.251-1.383v-.946a3.17,3.17,0,0,0-.251-1.376.961.961,0,0,0-1.7,0,3.158,3.158,0,0,0-.251,1.372Z" transform="translate(-520.256 -6740.804)" fill="#575757"/>
        <path id="Trazado_112254" data-name="Trazado 112254" d="M577.927,6746.008l-.755-.022a.853.853,0,0,0-.526.156.986.986,0,0,0-.321.438v5.238H574.32v-7.639h1.871l.077,1.023.037.016a2.075,2.075,0,0,1,.511-.866,1.071,1.071,0,0,1,.766-.314,1.958,1.958,0,0,1,.286.024,2.065,2.065,0,0,1,.264.061Z" transform="translate(-520.528 -6740.804)" fill="#575757"/>
        <path id="Trazado_112255" data-name="Trazado 112255" d="M522.255,6764.008l-.755-.022a.852.852,0,0,0-.526.156.987.987,0,0,0-.321.437v5.238h-2.005v-7.639h1.872l.077,1.024.036.016a2.075,2.075,0,0,1,.511-.866,1.073,1.073,0,0,1,.766-.314,1.893,1.893,0,0,1,.286.024,1.983,1.983,0,0,1,.264.061Z" transform="translate(-518.521 -6741.453)" fill="#575757"/>
        <path id="Trazado_112256" data-name="Trazado 112256" d="M523.049,6765.533a3.8,3.8,0,0,1,.815-2.517,3.159,3.159,0,0,1,4.572,0,3.785,3.785,0,0,1,.819,2.517v.945a3.769,3.769,0,0,1-.819,2.521,3.183,3.183,0,0,1-4.572,0,3.782,3.782,0,0,1-.815-2.521Zm2,.942a3.194,3.194,0,0,0,.247,1.387.879.879,0,0,0,.861.5.868.868,0,0,0,.843-.5,3.147,3.147,0,0,0,.252-1.383v-.946a3.155,3.155,0,0,0-.252-1.376.961.961,0,0,0-1.7,0,3.17,3.17,0,0,0-.25,1.372Z" transform="translate(-518.679 -6741.453)" fill="#575757"/>
        <path id="Trazado_112257" data-name="Trazado 112257" d="M532.953,6760.215v1.9h1.059v1.455h-1.059v3.833a1.232,1.232,0,0,0,.135.667.416.416,0,0,0,.367.2,2.42,2.42,0,0,0,.31-.017,2.468,2.468,0,0,0,.282-.061l.154,1.524a4.136,4.136,0,0,1-.606.142,4.634,4.634,0,0,1-.656.043,1.842,1.842,0,0,1-1.48-.6,2.878,2.878,0,0,1-.512-1.9v-3.841h-.9v-1.455h.9v-1.9Z" transform="translate(-518.932 -6741.387)" fill="#575757"/>
        <path id="Trazado_112258" data-name="Trazado 112258" d="M534.937,6765.533a3.794,3.794,0,0,1,.815-2.517,3.159,3.159,0,0,1,4.572,0,3.79,3.79,0,0,1,.819,2.517v.945a3.774,3.774,0,0,1-.819,2.521,3.183,3.183,0,0,1-4.572,0,3.778,3.778,0,0,1-.815-2.521Zm2,.942a3.194,3.194,0,0,0,.247,1.387.881.881,0,0,0,.862.5.868.868,0,0,0,.843-.5,3.147,3.147,0,0,0,.252-1.383v-.946a3.155,3.155,0,0,0-.252-1.376.961.961,0,0,0-1.7,0,3.155,3.155,0,0,0-.251,1.372Z" transform="translate(-519.108 -6741.453)" fill="#575757"/>
      </g>
      <g id="Grupo_62788" data-name="Grupo 62788" transform="translate(348.42 339.15)">
        <path id="Trazado_112259" data-name="Trazado 112259" d="M413.76,6924.185a5.414,5.414,0,0,1-1.832,1.713,5.887,5.887,0,0,1-3.1.741,4.99,4.99,0,0,1-5.354-5.458v-4.6a5.486,5.486,0,0,1,1.413-4.029,5.034,5.034,0,0,1,3.744-1.428,5.174,5.174,0,0,1,3.758,1.225,4.859,4.859,0,0,1,1.305,3.512l-.021.062h-2.765a2.82,2.82,0,0,0-.564-1.861,2.1,2.1,0,0,0-1.631-.587,2.047,2.047,0,0,0-1.688.761,3.663,3.663,0,0,0-.611,2.317v4.624a3.7,3.7,0,0,0,.617,2.347,2.174,2.174,0,0,0,1.8.761,2.729,2.729,0,0,0,1.3-.237,1.848,1.848,0,0,0,.688-.7v-2.7h-1.988v-2.072h4.929Z" transform="translate(-403.478 -6911.128)" fill="#fff"/>
        <path id="Trazado_112260" data-name="Trazado 112260" d="M419.406,6921.015v5.416h-2.951v-15.077h5.239a4.836,4.836,0,1,1,0,9.662Zm0-2.351h2.288a1.657,1.657,0,0,0,1.439-.7,2.955,2.955,0,0,0,.5-1.763,3.068,3.068,0,0,0-.493-1.791,1.643,1.643,0,0,0-1.444-.71h-2.288Z" transform="translate(-403.946 -6911.136)" fill="#fff"/>
        <path id="Trazado_112261" data-name="Trazado 112261" d="M431.846,6920.435v6H428.9v-15.067h4.918a4.933,4.933,0,0,1,3.494,1.176,4.23,4.23,0,0,1,1.27,3.267,3.8,3.8,0,0,1-.528,2.035,3.707,3.707,0,0,1-1.543,1.361,2.887,2.887,0,0,1,1.672,1.3,4.589,4.589,0,0,1,.513,2.278v1.066a6.674,6.674,0,0,0,.145,1.331,1.825,1.825,0,0,0,.508,1.03v.218h-3.044a1.7,1.7,0,0,1-.456-1.077,12.349,12.349,0,0,1-.094-1.522v-1.025a2.9,2.9,0,0,0-.46-1.75,1.546,1.546,0,0,0-1.321-.622Zm0-2.35h1.967a1.693,1.693,0,0,0,1.367-.549,2.346,2.346,0,0,0,.466-1.563,2.655,2.655,0,0,0-.466-1.646,1.6,1.6,0,0,0-1.357-.61h-1.977Z" transform="translate(-404.395 -6911.136)" fill="#fff"/>
      </g>
    </g>
    <g id="Grupo_62799" data-name="Grupo 62799" transform="translate(438.123 6721.755)">
      <g id="Grupo_62795" data-name="Grupo 62795" transform="translate(5.694)">
        <g id="Grupo_62793" data-name="Grupo 62793" transform="translate(0.016 2.052)">
          <g id="Grupo_62792" data-name="Grupo 62792">
            <g id="Grupo_62791" data-name="Grupo 62791">
              <g id="Grupo_62790" data-name="Grupo 62790">
                <path id="Trazado_112262" data-name="Trazado 112262" d="M470.824,6733.85a3.554,3.554,0,0,0-1.75-2.443c-1.166-.81-5.723-1.616-7.933.256s-1.338,5.338-.977,6.524a29.422,29.422,0,0,1,1.4,4.872,8.156,8.156,0,0,1-.934,3.207l0,0a5.893,5.893,0,0,0,3.906,1.653,5.968,5.968,0,0,0,2.019-.14,1.308,1.308,0,0,1-.209-.365,5.178,5.178,0,0,1,.33-2.958,2,2,0,0,1,2.151-.441c1.144.233.887-1.243,1.606-1.483.469-.157.166-.4.046-.64.079-.164.438-.25.513-.392.183-.349-.221-.48-.165-.66.143-.453,1.43-.471,1.311-.959-.2-.843-1.682-2.485-1.475-3.036A4.514,4.514,0,0,0,470.824,6733.85Z" transform="translate(-458.894 -6729.981)" fill="#ffb680"/>
                <path id="Trazado_112263" data-name="Trazado 112263" d="M470.7,6733.5s-1.53-.589-3.606.987c-1.329,1.009-1.375,2.194-3.146,2.685-1.526.424-1.251,1.51-1.251,1.51l-1.312,3.7s-2.306-1.955-2.5-6.3c-.19-4.177,1.068-4.681,1.068-4.681s2.251-1.748,6.747-1.4a10.578,10.578,0,0,1,4.012,1.018A6.31,6.31,0,0,0,470.7,6733.5Z" transform="translate(-458.865 -6729.96)" fill="#3c3c3c"/>
                <path id="Trazado_112264" data-name="Trazado 112264" d="M464.438,6737.538s-.049-1.375-1.351-1.213-1.456,2.007-.032,3.1S464.438,6737.538,464.438,6737.538Z" transform="translate(-458.979 -6730.19)" fill="#ffb680"/>
              </g>
            </g>
          </g>
        </g>
        <g id="Grupo_62794" data-name="Grupo 62794">
          <path id="Trazado_112265" data-name="Trazado 112265" d="M471.9,6733.228h0l-3.822-.4a3.616,3.616,0,0,1,2.2-2.667,5.719,5.719,0,0,0-3.973-2.24c-6.438-.9-7.459,5.2-7.459,5.2l17.547,2.047.224-1.118Z" transform="translate(-458.848 -6727.833)" fill="#1cbfbf"/>
          <path id="Trazado_112266" data-name="Trazado 112266" d="M468.421,6732.917l3.822.4h0l-.428-.075a6.407,6.407,0,0,0-1.189-2.988A3.615,3.615,0,0,0,468.421,6732.917Z" transform="translate(-459.193 -6727.92)" fill="#a9ffff"/>
        </g>
      </g>
      <path id="Trazado_112267" data-name="Trazado 112267" d="M468.228,6752.911l7.109,10.537s3.684,0,5.457-.217c1.876-.231,5.293-.639,6.688-1.65,1.221-.886,2.5-2.485,4.6-2.438,1.393.029.928,2.438-.586,3.951-2.3,2.3-2.951,1.92-6.542,3.115s-6.732,2.708-9.518,2.955c-1.943.173-8.369-6.07-8.369-6.07Z" transform="translate(-453.45 -6728.737)" fill="#ed8a40"/>
      <g id="Grupo_62796" data-name="Grupo 62796" transform="translate(1.931 103.139)">
        <path id="Trazado_112268" data-name="Trazado 112268" d="M465.417,6840.526a3.662,3.662,0,0,1,1.414-.645,5.891,5.891,0,0,0-1.536-1.751c-1.293-.93-3.985-2.678-3.985-2.678l-6.367-.622s.147,1.636.167,2.718a18.473,18.473,0,0,0,4.83,2.978C462.457,6841.36,464.142,6841.4,465.417,6840.526Z" transform="translate(-454.944 -6834.83)" fill="#ff364a"/>
        <path id="Trazado_112269" data-name="Trazado 112269" d="M486.485,6839.968a3.88,3.88,0,0,1,1.283-.622,5.911,5.911,0,0,0-1.584-1.839c-1.292-.929-3.984-2.677-3.984-2.677l-5.788.435-.578.044a14.368,14.368,0,0,1,.16,1.532,19.034,19.034,0,0,0,5.015,3.127C483.524,6840.8,485.208,6840.84,486.485,6839.968Z" transform="translate(-455.697 -6834.83)" fill="#ff364a"/>
        <path id="Trazado_112270" data-name="Trazado 112270" d="M455.113,6838.2c-.045.938,1.671,2.09,4.081,3.188s6.359,1.269,7.609.708c.709-.318.545-1.221.034-2.114a3.662,3.662,0,0,0-1.414.645c-1.275.873-2.96.834-5.476,0a18.473,18.473,0,0,1-4.83-2.978C455.121,6837.858,455.121,6838.048,455.113,6838.2Z" transform="translate(-454.95 -6834.932)" fill="#e21a37"/>
        <path id="Trazado_112271" data-name="Trazado 112271" d="M476,6837.552c-.046.938,1.671,2.089,4.081,3.188s6.359,1.268,7.608.708c.686-.307.553-1.163.082-2.026a3.88,3.88,0,0,0-1.283.622c-1.276.872-2.96.833-5.476,0a19.034,19.034,0,0,1-5.015-3.127C476.009,6837.131,476.012,6837.348,476,6837.552Z" transform="translate(-455.703 -6834.905)" fill="#e21a37"/>
      </g>
      <path id="Trazado_112272" data-name="Trazado 112272" d="M457.881,6835.382a28.473,28.473,0,0,0,4.024,3.206c1.759,1.128,3.229.772,1.758-.653s-2.891-2.526-2.891-2.526Z" transform="translate(-453.119 -6731.711)" fill="#fff"/>
      <path id="Trazado_112273" data-name="Trazado 112273" d="M479.236,6835.382a28.474,28.474,0,0,0,4.024,3.206c1.759,1.128,3.229.772,1.758-.653s-2.891-2.526-2.891-2.526Z" transform="translate(-453.889 -6731.711)" fill="#fff"/>
      <g id="Grupo_62797" data-name="Grupo 62797" transform="translate(0.889 18.337)">
        <path id="Trazado_112274" data-name="Trazado 112274" d="M458.685,6779.063c1.3.812,6.536-1.423,8.868-1,1.454.262,3.744.8,5.264,1.16-.8-8.438-.461-18.689-.88-20.245a27.419,27.419,0,0,0-5.59-10.6c-2.95.873-5.922-1.519-5.922-1.519a20.407,20.407,0,0,0-4.844,3.694c-1.749,2.168-1.847,8.481-1.639,13.988,1.317,2.643,2.953,5.95,3.562,7.268C458.587,6774.149,457.388,6778.25,458.685,6779.063Z" transform="translate(-453.863 -6746.855)" fill="#869bd3"/>
        <path id="Trazado_112275" data-name="Trazado 112275" d="M454.061,6783.4s8.637.614,11.65.446a62.01,62.01,0,0,0,7.39-1.463c-.107-.807-.2-1.644-.28-2.5-1.52-.364-3.81-.9-5.264-1.16-2.332-.421-7.573,1.814-8.868,1s-.1-4.915-1.181-7.259c-.609-1.317-2.245-4.625-3.562-7.268.068,1.807.17,3.527.256,4.986C454.5,6775.185,453.852,6779.9,454.061,6783.4Z" transform="translate(-453.866 -6747.517)" fill="#869bd3"/>
      </g>
      <g id="Grupo_62798" data-name="Grupo 62798" transform="translate(0 50.198)">
        <path id="Trazado_112276" data-name="Trazado 112276" d="M472.136,6799.86c1.276,4.231,2.321,8.033,3.714,9.557s4.467,3.844,3.626,4.773-1.653-.117-2.466,0-.553,2.079-.174,4.236c.155.882,1.2,9.816,1.866,15.522l5.505.033c-.111-6.24-.334-25.625-1.625-28.555-1.312-2.978-7.589-20.813-9.519-25.518-.778.22-3.219,1.214-3.922,1.373-4.841,1.092-11.806-.522-15.112-1.126a91.446,91.446,0,0,0-1.048,12.211c-.339,5.31,1.522,18.636,1.183,21.939-.272,2.656-.134,14.891-.334,19.618h9.193c.3-5.031,1.085-18.675,1.085-21.018,0-3.982,2.444-19.015,2.444-19.015l.862-1.388A18.552,18.552,0,0,1,472.136,6799.86Z" transform="translate(-452.941 -6779.908)" fill="#1599ea"/>
        <path id="Trazado_112277" data-name="Trazado 112277" d="M474.9,6834.395l4.313.025c-.664-5.706-1.711-14.64-1.866-15.522-.38-2.157-.639-4.121.174-4.236s1.625.928,2.466,0-2.233-3.25-3.626-4.773-2.438-5.326-3.714-9.557a18.552,18.552,0,0,0-4.721-7.357l-.862,1.388s6.371,14.46,6.794,17.6C474.2,6814.527,474.722,6829.165,474.9,6834.395Z" transform="translate(-453.45 -6780.379)" fill="#057fd3"/>
      </g>
      <path id="Trazado_112278" data-name="Trazado 112278" d="M457.881,6780.957s4.967-8.978,6.385-12.953a75.4,75.4,0,0,0,2.465-10.039,21.3,21.3,0,0,0,4.576-1.016c2.633,3.927,2.176,26.933,2.176,26.933Z" transform="translate(-453.119 -6728.882)" fill="#1599ea"/>
      <path id="Trazado_112279" data-name="Trazado 112279" d="M465.391,6761.473c-.681-1.418-2.06-4.67-2.392-5.254-4.06-7.149-9-7.443-8.782-.448.1,3.205,2.41,7.261,3.934,10.009C460.726,6764.259,462.9,6763.132,465.391,6761.473Z" transform="translate(-452.987 -6728.657)" fill="#5d7ac4"/>
      <path id="Trazado_112280" data-name="Trazado 112280" d="M456.5,6749.744s2.579-.8,6.319,2.837a22.646,22.646,0,0,1,4.543,6.51c.759,1.495,2,.644,1.538-.684a17.912,17.912,0,0,0-5.289-7.49c-3.618-2.9-5.677-2.313-5.677-2.313Z" transform="translate(-453.069 -6728.58)" fill="#3c3c3c"/>
      <path id="Trazado_112281" data-name="Trazado 112281" d="M486.972,6761.17c-.21-1.335-3.2-1.5-4.773-.837s-1.994,2.113-3.043,2.844c-2.145,1.5-10.147,3.718-11.376,3.861-.651.075-1.9-2.806-2.946-4.656-2.667,1.709-1.954,1.25-4.705,2.82,2.2,4.3,4.051,6.631,5.244,7.074,1.209.449,5.142-.937,7.927-2.491a54.732,54.732,0,0,1,6.552-3.324c1.849-.7,4.567-1.681,5.2-2.443C486.1,6762.749,487.182,6762.505,486.972,6761.17Z" transform="translate(-453.2 -6728.991)" fill="#ffb680"/>
      <path id="Trazado_112282" data-name="Trazado 112282" d="M493.449,6759.536c-.328-1.007-1.488-1.007-2.447.962-.5,1.021.749,3.792,1.964,1.9A2.809,2.809,0,0,0,493.449,6759.536Z" transform="translate(-454.309 -6728.952)" fill="#ed8a40"/>
      <path id="Trazado_112283" data-name="Trazado 112283" d="M453.864,6781.7l.237-2.492s8.027,1.716,12.691,1.539,6.575-2.054,6.575-2.054l.435,2.96s-3.026,1.787-9.294,1.435A80.75,80.75,0,0,1,453.864,6781.7Z" transform="translate(-452.974 -6729.667)" fill="#057fd3"/>
      <path id="Trazado_112284" data-name="Trazado 112284" d="M461.719,6781.491s-.424,6.074-2.739,8.34c-2.016,1.973-5.921,1.664-5.921,1.664l-.106,1.551s4.981.661,7.729-2.673,2.625-8.474,2.625-8.474Z" transform="translate(-452.941 -6729.768)" fill="#057fd3"/>
      <path id="Trazado_112285" data-name="Trazado 112285" d="M467.062,6793.991l1.1-.466a20,20,0,0,0,1.658-4.89,35.755,35.755,0,0,0,.426-5.958c-.155,0-1.78.174-1.78.174s-.024,2.762-.271,5.482A49.45,49.45,0,0,1,467.062,6793.991Z" transform="translate(-453.45 -6729.81)" fill="#057fd3"/>
      <path id="Trazado_112286" data-name="Trazado 112286" d="M468.885,6758.753a.468.468,0,1,1-.465-.522A.5.5,0,0,1,468.885,6758.753Z" transform="translate(-453.482 -6728.929)" fill="#fff"/>
    </g>
  </g>
</svg>
